<?xml version="1.0" encoding="UTF-8"?>
<svg width="1440" height="600" viewBox="0 0 1440 600" fill="none" xmlns="http://www.w3.org/2000/svg">
    <path d="M0 0H1440V600H0V0Z" fill="url(#paint0_linear)"/>
    <g opacity="0.1">
        <path d="M1374.03 291.854C1394.51 291.854 1411.16 275.207 1411.16 254.727C1411.16 234.247 1394.51 217.6 1374.03 217.6C1353.55 217.6 1336.91 234.247 1336.91 254.727C1336.91 275.207 1353.55 291.854 1374.03 291.854Z" fill="white"/>
        <path d="M159.357 459.927C179.837 459.927 196.484 443.28 196.484 422.8C196.484 402.32 179.837 385.673 159.357 385.673C138.877 385.673 122.23 402.32 122.23 422.8C122.23 443.28 138.877 459.927 159.357 459.927Z" fill="white"/>
        <path d="M338.033 196.484C358.513 196.484 375.16 179.837 375.16 159.357C375.16 138.877 358.513 122.23 338.033 122.23C317.553 122.23 300.906 138.877 300.906 159.357C300.906 179.837 317.553 196.484 338.033 196.484Z" fill="white"/>
    </g>
    <defs>
        <linearGradient id="paint0_linear" x1="720" y1="0" x2="720" y2="600" gradientUnits="userSpaceOnUse">
            <stop stop-color="#2C3E50"/>
            <stop offset="1" stop-color="#3498DB"/>
        </linearGradient>
    </defs>
</svg>
